<svg id="Layer_1" data-name="Layer 1" xmlns="http://www.w3.org/2000/svg" viewBox="0 0 2833.17 761.1"><defs><style>.cls-1{fill:#5252a3;}.cls-2{fill:#2e3192;}</style></defs><title>Artboard 1</title><path class="cls-1" d="M217,121.5C270.69,81,325.42,41.76,378.19,0c29,23.18,60.05,43.77,88.89,67.24,94.6,72.17,190.82,142.37,285.55,214.41,3.31,18.63.49,38.07,1.4,57-2.77,20.29,1.19,40.66-.89,60.89-.56,59.56.53,119.17.07,178.37,4.19,42.16-2.7,88.05-30.52,121.55-22.77,29.14-61.47,42.21-97.48,41.52-37.78,3.12-75.87.82-113.53,5.74-90.93,3.39-181.88,7.47-272.92,11.54-25.93.91-51.86,5.07-77.78,1.23-53.73-4.29-111.51-26.75-139.2-75.83C14.34,672.84,12.14,660,7.37,648.13,6.28,635.8-.35,624.42.75,611.88Q1,451.4.11,290.88a10.57,10.57,0,0,1,.67-5.55c44.89-35.9,93.1-67.7,137.42-104.41C165,161.86,191.68,142.5,217,121.5Zm285.18,40.34c-42.63-30.66-83.31-64-127-93C349.8,89.05,323.64,108.31,298,128.26c-81.4,59.82-161.13,121.9-241.51,183.08-1.8,12.86-1.47,25.86-1.53,38.82-.51,83.63.52,167.25-.09,250.89-.16,13.91.53,28.1,4.89,41.4,7.46,13.32,13.85,28.43,27.08,37.15,35.34,29.63,84.46,31.28,128.27,27.69,38.68-11.39,74.43-37.55,92.36-74.21-64.35-10.4-128.46-22.55-192.66-34-7.47-2.42-16.45-1-23.05-5.19-6.58-21.22-4.85-43.95-6.19-65.93.83-32.29,5.8-64.93,18.6-94.74a151.29,151.29,0,0,1,28-36.18c23.19-21,55.82-28.91,86.47-25.34,16.51.68,33.2,2.9,48.66,9q186.2,55.73,372.39,111.5c15.87,4.4,31.74,9.6,45.89,18.17,4.61,2.64,9.21,6.15,14.82,5.78-.25-68.67-3.13-137.17-1.81-205.89-16.08-15.8-36.76-26.14-53.28-41.5M155.45,450c-17.3,29-17.8,64-16.61,96.81,60.59,11.33,121.41,22.24,182.3,32.1.68-11-1.05-21.91-.31-32.84-4.68-33.7-13.86-69.78-39.54-93.88-17.19-18.78-42.8-27.34-67.62-29.13C191.38,419.49,166.23,429.46,155.45,450ZM352,462.48a241.4,241.4,0,0,1,17,152.66c-2.34,28.66-20.2,52.27-35.62,75.31-3.23,4.15-7.08,7.75-10.73,11.51,40.59-.14,80.92-3.79,121.46-5.29,53.25-1.76,106.44-6.83,159.72-7,9.74-1.31,19.75-3.8,29.57-1.71,17.1,0,33-7.87,46-18.5,19.9-22.63,27.66-58,13.17-85.3-15.08-22.54-41.66-34.08-66.48-42.57Q489.1,501.89,352,462.48Z"/><path class="cls-2" d="M880.62,527.54q-20.49,0-31.51-20.59H848l.37,5.31q.74,10.1.74,18v58.42H832.43V382.73h13.72l2.22,19.43h.74q5.92-11.66,13.72-16.84a31.69,31.69,0,0,1,18-5.18q19.83,0,30.81,19.24t11,54.2q0,34.85-11,54.4T880.62,527.54ZM877.84,399.7q-15.11,0-21.82,11.92t-6.91,37.43v4.53q0,28.89,6.86,41.77t22.24,12.89q12.78,0,20-14.5t7.19-40.42q0-26-7.19-39.82T877.84,399.7Z"/><path class="cls-2" d="M992.45,527.54q-22.87,0-35.9-19.36t-13-53.3q0-34.2,12.14-54.47t32.8-20.27q19.18,0,30.58,17.29t11.39,46.83v14.12H960.77q.45,24.21,8.8,36.78t23.63,12.56a58.2,58.2,0,0,0,15.47-2q7.32-2,17.14-7.84v20.47a57.65,57.65,0,0,1-33.36,9.19Zm-4.17-128.36q-11.94,0-18.9,10.75t-8.24,29.92h51.79q-.18-19.94-6.58-30.31T988.28,399.18Z"/><path class="cls-2" d="M1103.64,380.14a41.64,41.64,0,0,1,12,1.56l-2,21.5a36,36,0,0,0-11-1.82q-8.05,0-15,6.22t-10.8,17.16a72.25,72.25,0,0,0-3.89,24.29V525H1056.2V382.73h13.72l1.85,26h.74q5.84-14.11,13.81-21.37T1103.64,380.14Z"/><path class="cls-2" d="M1264,525V433.38q0-33.67-20.67-33.68-14.17,0-20.85,11.53t-6.67,35.23V525h-16.58V433.38q0-16.85-5-25.26t-15.8-8.42q-14.09,0-20.62,12.05t-6.53,39.5V525h-16.68V382.73H1148l2.5,19.43h.93A37.62,37.62,0,0,1,1163.73,386a29.26,29.26,0,0,1,17.75-5.83q23.89,0,31.13,23.84h.93q4.9-11.4,13.39-17.62a31.65,31.65,0,0,1,19.22-6.22q17.24,0,25.81,12.44t8.57,39.76V525Z"/><path class="cls-2" d="M1310.74,344.26q0-7.77,2.82-11.26a8.56,8.56,0,0,1,13.81,0q2.91,3.5,2.92,11.26t-2.92,11.27a8.38,8.38,0,0,1-13.81,0Q1310.74,351.92,1310.74,344.26Zm18,180.69H1312V382.73h16.68Z"/><path class="cls-2" d="M1427.21,485.71q0,19.94-10.66,30.89t-29.93,10.94q-20.1,0-32-8.94V497.36q16.75,11.4,32.33,11.4,12.6,0,18.35-5.7t5.74-15.28a20,20,0,0,0-5.51-14.25q-5.52-5.83-19.6-13.34-14.35-7.77-20.2-13.28a34.41,34.41,0,0,1-8.57-12.37,45.26,45.26,0,0,1-2.73-16.71q0-17.47,10.19-27.58t28-10.11a59.46,59.46,0,0,1,32.44,9.59l-5.66,18.52q-15.47-9.06-27.89-9.07-10.38,0-15.75,4.6t-5.37,12.63A18.47,18.47,0,0,0,1375,429.3q4.64,5.11,21.59,14.18,12.69,6.6,18.76,12.3a36,36,0,0,1,8.94,12.83A45.59,45.59,0,0,1,1427.21,485.71Z"/><path class="cls-2" d="M1445,457.08V435.32h46v21.76Z"/><path class="cls-2" d="M1557.11,527.54q-22,0-34.19-18.84t-12.23-54.08q0-35.75,12.37-55.11t35.26-19.37a51.64,51.64,0,0,1,14.68,2.14,40,40,0,0,1,12,5.5l-5.09,19.43q-12.89-6.73-22-6.73-15.39,0-22.7,13.53t-7.32,40.35q0,25.77,7.32,39.44t21.68,13.67q13.42,0,26.41-8.29V519.9Q1572.77,527.54,1557.11,527.54Z"/><path class="cls-2" d="M1695.82,453.58q0,34.85-12.6,54.4t-34.84,19.56a36.82,36.82,0,0,1-24.46-9q-10.65-9-16.4-25.84t-5.75-39.12q0-34.71,12.42-54.07T1649,380.14q21.49,0,34.14,19.75T1695.82,453.58Zm-76.81,0q0,26.82,7.55,40.74t22.29,13.92q14.54,0,22.14-13.92t7.6-40.74q0-26.81-7.65-40.34t-22.37-13.54Q1619,399.7,1619,453.58Z"/><path class="cls-2" d="M1791.54,525V434q0-17.36-5.51-25.84t-17.29-8.48q-15.66,0-22.74,12.11t-7.09,39.44V525h-16.68V382.73h13.44l2.5,19.43h.92a37.79,37.79,0,0,1,13.25-16.25,32.85,32.85,0,0,1,18.81-5.77q18.72,0,27.8,12.7t9.08,39.5V525Z"/><path class="cls-2" d="M1905.79,485.71q0,19.94-10.66,30.89t-29.93,10.94q-20.1,0-32-8.94V497.36q16.79,11.4,32.34,11.4,12.6,0,18.35-5.7t5.74-15.28a20,20,0,0,0-5.51-14.25q-5.52-5.83-19.6-13.34-14.35-7.77-20.2-13.28a34.41,34.41,0,0,1-8.57-12.37,45.26,45.26,0,0,1-2.73-16.71q0-17.47,10.19-27.58t28-10.11a59.46,59.46,0,0,1,32.44,9.59L1898,408.25q-15.46-9.06-27.89-9.07-10.38,0-15.75,4.6T1849,416.41a18.47,18.47,0,0,0,4.63,12.89q4.64,5.11,21.59,14.18,12.69,6.6,18.76,12.3a36,36,0,0,1,8.94,12.83A45.59,45.59,0,0,1,1905.79,485.71Z"/><path class="cls-2" d="M1964.44,508.5a37.67,37.67,0,0,0,7.6-.91,26.25,26.25,0,0,0,6.58-2.07V523.4a29.87,29.87,0,0,1-7.19,2.78,36.31,36.31,0,0,1-9.86,1.36q-29.83,0-29.84-43.91V400.87h-14.36V389.73l14.55-9.33,6.67-30.31h9.91v32.64h29.37v18.14H1948.5V483q0,12.3,4.22,18.91A13.2,13.2,0,0,0,1964.44,508.5Z"/><path class="cls-2" d="M2046.35,380.14a41.57,41.57,0,0,1,12,1.56l-2,21.5a36,36,0,0,0-11-1.82q-8.07,0-15,6.22t-10.79,17.16a72,72,0,0,0-3.89,24.29V525h-16.68V382.73h13.71l1.85,26h.75q5.83-14.11,13.8-21.37T2046.35,380.14Z"/><path class="cls-2" d="M2093.05,382.73v91.58q0,17.22,5.51,25.58t17.1,8.35q15.66,0,22.79-12.17t7.14-39.25V382.73h16.77V525h-13.72l-2.41-18.78h-.83a36,36,0,0,1-12.88,15.8,34.06,34.06,0,0,1-19.36,5.57q-18.36,0-27.66-12.3t-9.32-39.38V382.73Z"/><path class="cls-2" d="M2193.3,344.26q0-7.77,2.83-11.26a8.56,8.56,0,0,1,13.81,0q2.91,3.5,2.91,11.26t-2.91,11.27a8.38,8.38,0,0,1-13.81,0Q2193.31,351.92,2193.3,344.26Zm18,180.69H2194.6V382.73h16.68Z"/><path class="cls-2" d="M2291,380.14a41.61,41.61,0,0,1,12,1.56l-2,21.5a36,36,0,0,0-11-1.82q-8.05,0-15,6.22t-10.79,17.16a72,72,0,0,0-3.9,24.29V525h-16.68V382.73h13.72l1.85,26h.74q5.84-14.11,13.81-21.37T2291,380.14Z"/><path class="cls-2" d="M2363.33,527.54q-22.89,0-35.9-19.36t-13-53.3q0-34.2,12.14-54.47t32.8-20.27q19.17,0,30.57,17.29t11.4,46.83v14.12h-69.68q.46,24.21,8.8,36.78t23.63,12.56a58.22,58.22,0,0,0,15.48-2q7.32-2,17.14-7.84v20.47a57.7,57.7,0,0,1-33.36,9.19Zm-4.17-128.36q-12,0-18.9,10.75T2332,439.85h51.8q-.2-19.94-6.58-30.31T2359.16,399.18Z"/><path class="cls-2" d="M2424.58,510.57a32.34,32.34,0,0,1,.93-8.35,16.45,16.45,0,0,1,2.5-5.57,9.56,9.56,0,0,1,3.7-3.11,11.44,11.44,0,0,1,9.22,0,9.51,9.51,0,0,1,3.76,3.11,16.65,16.65,0,0,1,2.5,5.57,32.83,32.83,0,0,1,.92,8.35,32.27,32.27,0,0,1-.92,8.23,17.38,17.38,0,0,1-2.5,5.63,9.79,9.79,0,0,1-3.76,3.24,10.74,10.74,0,0,1-9.22,0,9.85,9.85,0,0,1-3.7-3.24,17.17,17.17,0,0,1-2.5-5.63A31.79,31.79,0,0,1,2424.58,510.57Z"/><path class="cls-2" d="M2518.72,527.54q-22,0-34.19-18.84t-12.23-54.08q0-35.75,12.37-55.11t35.25-19.37a51.65,51.65,0,0,1,14.69,2.14,40,40,0,0,1,12,5.5l-5.1,19.43q-12.87-6.73-22-6.73-15.37,0-22.7,13.53t-7.32,40.35q0,25.77,7.32,39.44t21.68,13.67q13.44,0,26.41-8.29V519.9Q2534.38,527.54,2518.72,527.54Z"/><path class="cls-2" d="M2657.43,453.58q0,34.85-12.6,54.4T2610,527.54a36.8,36.8,0,0,1-24.46-9q-10.67-9-16.4-25.84t-5.75-39.12q0-34.71,12.42-54.07t34.84-19.37q21.49,0,34.14,19.75T2657.43,453.58Zm-76.81,0q0,26.82,7.55,40.74t22.28,13.92q14.55,0,22.15-13.92t7.59-40.74q0-26.81-7.64-40.34t-22.38-13.54Q2580.62,399.7,2580.62,453.58Z"/><path class="cls-2" d="M2813.28,525V433.38q0-33.67-20.66-33.68-14.17,0-20.85,11.53t-6.67,35.23V525h-16.59V433.38q0-16.85-5.05-25.26t-15.8-8.42q-14.09,0-20.61,12.05t-6.54,39.5V525h-16.67V382.73h13.43l2.5,19.43h.93A37.64,37.64,0,0,1,2713,386a29.24,29.24,0,0,1,17.74-5.83q23.91,0,31.13,23.84h.93q4.91-11.4,13.39-17.62a31.66,31.66,0,0,1,19.23-6.22q17.23,0,25.8,12.44t8.57,39.76V525Z"/></svg>