<svg id="Layer_1" data-name="Layer 1" xmlns="http://www.w3.org/2000/svg" viewBox="0 0 844.08 438.9"><defs><style>.cls-1{fill:#4c34e0;}</style></defs><g id="hangar"><path class="cls-1" d="M361.21,708.81l-1-.43L67.32,587.65l2.15-153.54,298-68.51L653.2,294.37l1.4.48L911.4,383.2V678.33ZM77.41,581,362.92,698.7,901.4,668.87V390.34L652.74,304.79,369.79,375.32,79.36,442.1Z" transform="translate(-67.32 -269.91)"/><polygon class="cls-1" points="472.86 424.35 462.86 424.35 462.86 136.97 711.59 125.02 711.59 412.62 701.59 412.62 701.59 135.52 472.86 146.5 472.86 424.35"/><rect class="cls-1" x="532.16" y="420.87" width="238.81" height="10" transform="translate(-87.8 -236.8) rotate(-2.87)"/><rect class="cls-1" x="532.7" y="443.42" width="238.81" height="10" transform="translate(-88.92 -236.74) rotate(-2.87)"/><rect class="cls-1" x="533.24" y="465.97" width="238.81" height="10" transform="translate(-90.05 -236.69) rotate(-2.87)"/><rect class="cls-1" x="533.78" y="488.52" width="238.81" height="10" transform="translate(-91.18 -236.63) rotate(-2.87)"/><rect class="cls-1" x="534.32" y="511.07" width="238.81" height="10" transform="translate(-92.3 -236.58) rotate(-2.87)"/><rect class="cls-1" x="534.86" y="533.62" width="238.81" height="10" transform="translate(-93.43 -236.52) rotate(-2.87)"/><rect class="cls-1" x="535.41" y="556.17" width="238.81" height="10" transform="translate(-94.56 -236.47) rotate(-2.87)"/><rect class="cls-1" x="535.95" y="578.72" width="238.81" height="10" transform="translate(-95.68 -236.41) rotate(-2.87)"/><rect class="cls-1" x="536.49" y="601.27" width="238.81" height="10" transform="translate(-96.81 -236.36) rotate(-2.87)"/><rect class="cls-1" x="537.03" y="623.82" width="238.81" height="10" transform="translate(-97.94 -236.3) rotate(-2.87)"/><rect class="cls-1" x="537.57" y="646.37" width="238.81" height="10" transform="translate(-99.06 -236.25) rotate(-2.87)"/><rect class="cls-1" x="538.11" y="668.92" width="238.81" height="10" transform="translate(-100.19 -236.19) rotate(-2.87)"/><path class="cls-1" d="M367.06,703.85l-10-.2,6.39-326.87-294,67.6-.15-23.79,3.75-1c98-25.76,197.43-51.62,295.47-76.85,94.38-24.29,190.11-48.67,284.52-72.47l1.47-.37L911.4,361.42v25.35h-10V368.48L654,280.35C560.11,304,464.9,328.27,371,352.43c-96.78,24.91-194.88,50.43-291.66,75.86l0,3.54,294.33-67.67Z" transform="translate(-67.32 -269.91)"/><rect class="cls-1" x="357.73" y="354.03" width="22.91" height="10" transform="translate(-75.9 439.12) rotate(-87.02)"/></g></svg>