<svg id="Layer_1" data-name="Layer 1" xmlns="http://www.w3.org/2000/svg" viewBox="0 0 763.17 517.11"><defs><style>.cls-1{fill:#4c34e0;}</style></defs><g id="maison"><path class="cls-1" d="M802.35,234.92,802,235l-1.34-4.23L457,264.28l-5.92.58-6.34.61-7,.69L272.62,282.24l-2.33.24L140.58,457.83l18.13-1,10.52-.58L714.72,426l4.69-.27,4.13-.23,1.69-4,1.92-4.57L796.46,252l6.22-14.8.21-.49Zm-86,180.42-554,30.73L276,292.49l153.69-15,13.91-1.36,3.1-.3,9-.88,3.79-.36,21-2.06L789,242.5Z" transform="translate(-107.77 -230.8)"/><polygon class="cls-1" points="763.17 234.89 755.51 232.87 745.02 230.1 617.47 196.44 611.64 194.9 610.85 194.69 612.18 189.61 613.53 184.51 619.38 186.06 747.75 219.94 688.69 21.21 684.5 7.11 694.21 4.23 694.58 4.11 695.12 5.92 700.47 23.93 700.53 24.14 710.07 56.22 763.17 234.89"/><path class="cls-1" d="M720.74,747.91l-.64,0q-278.21-15-556.42-30.06l-5-.27V596.87h10.52V707.59L720,737.33l129.21-24.72,3.6-254.46,10.52.15-3.72,263Z" transform="translate(-107.77 -230.8)"/><rect class="cls-1" x="50.93" y="221.14" width="10.52" height="93.22"/><path class="cls-1" d="M714.84,528.48q-.06-54-.14-108.06l10.53,0q.06,54,.13,108.07Z" transform="translate(-107.77 -230.8)"/><path class="cls-1" d="M715.13,742.63q-.14-107-.29-214l10.52,0q.15,107,.29,214Z" transform="translate(-107.77 -230.8)"/><path class="cls-1" d="M401.17,317.34,444.31,257l45.42,52.68ZM445.08,274,423,304.9,468.33,301Z" transform="translate(-107.77 -230.8)"/><polygon class="cls-1" points="300.5 159.46 300.5 81.47 311.02 81.47 311.02 148.32 368.14 145.05 404.02 83.73 393.63 60.28 335.17 39.69 338.67 29.76 401.4 51.87 415.82 84.4 374.37 155.23 300.5 159.46"/><rect class="cls-1" x="363.34" y="74.77" width="10.52" height="75.52"/><rect class="cls-1" x="493.1" y="290.2" width="10.52" height="39.82" transform="translate(-29.69 489.06) rotate(-76.17)"/><path class="cls-1" d="M107.77,602.65,161.48,540l563.88-16.93v6.83l-34.81,67.36-3.16,0Zm58.68-52.29-35.62,41.55,553.29-5.13L711.39,534Z" transform="translate(-107.77 -230.8)"/><polygon class="cls-1" points="607.07 318.6 607.07 292.41 621.15 292.41 616.96 300.3 607.07 318.6"/><path class="cls-1" d="M203.56,465.87l-.26,64.06h35.53V464.78Z" transform="translate(-107.77 -230.8)"/><path class="cls-1" d="M274.89,462.38l-.26,64.8,35.53-.74V461.3Z" transform="translate(-107.77 -230.8)"/><path class="cls-1" d="M400.35,456.31l-.27,66.47,36.73-.75V455.2Z" transform="translate(-107.77 -230.8)"/><path class="cls-1" d="M532.64,449.18l-.31,69.53,41.32-.79V448Z" transform="translate(-107.77 -230.8)"/><path class="cls-1" d="M619.62,445.54l-.32,69.53,43.66-.79V444.37Z" transform="translate(-107.77 -230.8)"/><path class="cls-1" d="M204.29,622.66,204,686.72h35.53V621.57Z" transform="translate(-107.77 -230.8)"/><path class="cls-1" d="M275.62,621.14l-.26,64.8,35.53-.74V620.05Z" transform="translate(-107.77 -230.8)"/><path class="cls-1" d="M404,634.19l-.27,92.32,36.73-1V632.64Z" transform="translate(-107.77 -230.8)"/><path class="cls-1" d="M536.32,622.69l-.3,69.53,41.32-.79V621.52Z" transform="translate(-107.77 -230.8)"/><path class="cls-1" d="M623.3,625.93,623,695.46l43.66-.79V624.76Z" transform="translate(-107.77 -230.8)"/><polygon class="cls-1" points="700.47 23.93 694.9 6.42 694.21 4.23 694.58 4.11 695.12 5.92 700.47 23.93"/></g></svg>